G04 #@! TF.FileFunction,Soldermask,Top*
%FSLAX46Y46*%
G04 Gerber Fmt 4.6, Leading zero omitted, Abs format (unit mm)*
G04 Created by KiCad (PCBNEW (2015-07-04 BZR 5884, Git c1bbf3e)-product) date 02/05/2016 12:26:27 PM*
%MOMM*%
G01*
G04 APERTURE LIST*
%ADD10C,0.100000*%
%ADD11C,0.950000*%
%ADD12C,1.000000*%
%ADD13C,3.450000*%
%ADD14C,2.000000*%
%ADD15R,1.300000X0.250000*%
%ADD16R,0.250000X1.300000*%
%ADD17C,2.400000*%
%ADD18R,0.600000X0.700000*%
%ADD19R,0.700000X0.600000*%
%ADD20R,0.635000X1.143000*%
%ADD21R,1.150000X3.300000*%
%ADD22R,2.032000X2.032000*%
%ADD23O,2.032000X2.032000*%
%ADD24R,2.032000X1.727200*%
%ADD25O,2.032000X1.727200*%
%ADD26R,0.650000X1.060000*%
%ADD27R,0.599440X1.000760*%
%ADD28R,2.537160X1.837160*%
%ADD29R,1.200000X1.500000*%
%ADD30R,2.550160X2.700020*%
%ADD31R,2.550160X3.799840*%
%ADD32R,1.803400X1.600200*%
%ADD33C,2.200000*%
%ADD34R,1.727200X2.032000*%
%ADD35O,1.727200X2.032000*%
%ADD36R,1.050000X1.050000*%
%ADD37C,1.050000*%
%ADD38R,0.700000X0.250000*%
%ADD39R,0.250000X0.500000*%
%ADD40R,2.400000X0.840000*%
%ADD41C,1.727200*%
%ADD42C,3.000000*%
G04 APERTURE END LIST*
D10*
G36*
X109406040Y-126849131D02*
X109688882Y-126566289D01*
X110643476Y-127520883D01*
X110360634Y-127803725D01*
X109406040Y-126849131D01*
X109406040Y-126849131D01*
G37*
G36*
X108946420Y-127308751D02*
X109229262Y-127025909D01*
X110183856Y-127980503D01*
X109901014Y-128263345D01*
X108946420Y-127308751D01*
X108946420Y-127308751D01*
G37*
G36*
X108486801Y-127768370D02*
X108769643Y-127485528D01*
X109724237Y-128440122D01*
X109441395Y-128722964D01*
X108486801Y-127768370D01*
X108486801Y-127768370D01*
G37*
G36*
X108027182Y-128227990D02*
X108310024Y-127945148D01*
X109264618Y-128899742D01*
X108981776Y-129182584D01*
X108027182Y-128227990D01*
X108027182Y-128227990D01*
G37*
G36*
X107567562Y-128687609D02*
X107850404Y-128404767D01*
X108804998Y-129359361D01*
X108522156Y-129642203D01*
X107567562Y-128687609D01*
X107567562Y-128687609D01*
G37*
D11*
X110979352Y-126230413D02*
X110767220Y-126442545D01*
X107443818Y-129765947D02*
X107231686Y-129978079D01*
D12*
X109476750Y-123525730D02*
X109865658Y-123914638D01*
X104527003Y-128475478D02*
X104915911Y-128864386D01*
D13*
X152700000Y-154000000D03*
D14*
X140000000Y-177720000D03*
X152700000Y-177720000D03*
D13*
X127300000Y-154000000D03*
D15*
X142600000Y-143900000D03*
X142600000Y-143400000D03*
X142600000Y-142900000D03*
X142600000Y-142400000D03*
X142600000Y-141900000D03*
X142600000Y-141400000D03*
X142600000Y-140900000D03*
X142600000Y-140400000D03*
X142600000Y-139900000D03*
X142600000Y-139400000D03*
X142600000Y-138900000D03*
X142600000Y-138400000D03*
D16*
X141000000Y-136800000D03*
X140500000Y-136800000D03*
X140000000Y-136800000D03*
X139500000Y-136800000D03*
X139000000Y-136800000D03*
X138500000Y-136800000D03*
X138000000Y-136800000D03*
X137500000Y-136800000D03*
X137000000Y-136800000D03*
X136500000Y-136800000D03*
X136000000Y-136800000D03*
X135500000Y-136800000D03*
D15*
X133900000Y-138400000D03*
X133900000Y-138900000D03*
X133900000Y-139400000D03*
X133900000Y-139900000D03*
X133900000Y-140400000D03*
X133900000Y-140900000D03*
X133900000Y-141400000D03*
X133900000Y-141900000D03*
X133900000Y-142400000D03*
X133900000Y-142900000D03*
X133900000Y-143400000D03*
X133900000Y-143900000D03*
D16*
X135500000Y-145500000D03*
X136000000Y-145500000D03*
X136500000Y-145500000D03*
X137000000Y-145500000D03*
X137500000Y-145500000D03*
X138000000Y-145500000D03*
X138500000Y-145500000D03*
X139000000Y-145500000D03*
X139500000Y-145500000D03*
X140000000Y-145500000D03*
X140500000Y-145500000D03*
X141000000Y-145500000D03*
D17*
X133270000Y-124400000D03*
X146730000Y-124400000D03*
D18*
X147700000Y-139500000D03*
X147700000Y-138300000D03*
D19*
X148200000Y-151100000D03*
X149400000Y-151100000D03*
X139200000Y-149000000D03*
X140400000Y-149000000D03*
X148200000Y-143800000D03*
X149400000Y-143800000D03*
X138000000Y-149000000D03*
X136800000Y-149000000D03*
D18*
X137600000Y-160700000D03*
X137600000Y-159500000D03*
X132300000Y-159300000D03*
X132300000Y-160500000D03*
D19*
X138400000Y-133400000D03*
X139600000Y-133400000D03*
X130000000Y-144800000D03*
X128800000Y-144800000D03*
D18*
X144600000Y-194800000D03*
X144600000Y-196000000D03*
X143100000Y-194800000D03*
X143100000Y-196000000D03*
D19*
X142600000Y-198500000D03*
X143800000Y-198500000D03*
D10*
G36*
X113340330Y-128584474D02*
X114615526Y-129859670D01*
X113484014Y-130991182D01*
X112208818Y-129715986D01*
X113340330Y-128584474D01*
X113340330Y-128584474D01*
G37*
G36*
X115315986Y-126608818D02*
X116591182Y-127884014D01*
X115459670Y-129015526D01*
X114184474Y-127740330D01*
X115315986Y-126608818D01*
X115315986Y-126608818D01*
G37*
D20*
X149162000Y-140800000D03*
X147638000Y-140800000D03*
D21*
X149204027Y-168196367D03*
X147004027Y-168196367D03*
D22*
X110700000Y-159700000D03*
D23*
X113240000Y-159700000D03*
D22*
X173800000Y-156800000D03*
D23*
X171260000Y-156800000D03*
D22*
X164800000Y-118900000D03*
D23*
X164800000Y-121440000D03*
D10*
G36*
X112083883Y-137659619D02*
X111659619Y-138083883D01*
X111164645Y-137588909D01*
X111588909Y-137164645D01*
X112083883Y-137659619D01*
X112083883Y-137659619D01*
G37*
G36*
X111235355Y-136811091D02*
X110811091Y-137235355D01*
X110316117Y-136740381D01*
X110740381Y-136316117D01*
X111235355Y-136811091D01*
X111235355Y-136811091D01*
G37*
G36*
X111516117Y-135540381D02*
X111940381Y-135116117D01*
X112435355Y-135611091D01*
X112011091Y-136035355D01*
X111516117Y-135540381D01*
X111516117Y-135540381D01*
G37*
G36*
X112364645Y-136388909D02*
X112788909Y-135964645D01*
X113283883Y-136459619D01*
X112859619Y-136883883D01*
X112364645Y-136388909D01*
X112364645Y-136388909D01*
G37*
D19*
X132800000Y-149100000D03*
X134000000Y-149100000D03*
D10*
G36*
X116783883Y-135659619D02*
X116359619Y-136083883D01*
X115864645Y-135588909D01*
X116288909Y-135164645D01*
X116783883Y-135659619D01*
X116783883Y-135659619D01*
G37*
G36*
X115935355Y-134811091D02*
X115511091Y-135235355D01*
X115016117Y-134740381D01*
X115440381Y-134316117D01*
X115935355Y-134811091D01*
X115935355Y-134811091D01*
G37*
D24*
X163900000Y-172340000D03*
D25*
X163900000Y-169800000D03*
X163900000Y-167260000D03*
D10*
G36*
X109284474Y-137113567D02*
X109992118Y-137821211D01*
X109568250Y-138245079D01*
X108860606Y-137537435D01*
X109284474Y-137113567D01*
X109284474Y-137113567D01*
G37*
G36*
X107937435Y-138460606D02*
X108645079Y-139168250D01*
X108221211Y-139592118D01*
X107513567Y-138884474D01*
X107937435Y-138460606D01*
X107937435Y-138460606D01*
G37*
G36*
X108610955Y-137787087D02*
X109318599Y-138494731D01*
X108894731Y-138918599D01*
X108187087Y-138210955D01*
X108610955Y-137787087D01*
X108610955Y-137787087D01*
G37*
G36*
X109431750Y-139954921D02*
X110139394Y-140662565D01*
X109715526Y-141086433D01*
X109007882Y-140378789D01*
X109431750Y-139954921D01*
X109431750Y-139954921D01*
G37*
G36*
X110778789Y-138607882D02*
X111486433Y-139315526D01*
X111062565Y-139739394D01*
X110354921Y-139031750D01*
X110778789Y-138607882D01*
X110778789Y-138607882D01*
G37*
D26*
X134050000Y-161100000D03*
X135000000Y-161100000D03*
X135950000Y-161100000D03*
X135950000Y-158900000D03*
X134050000Y-158900000D03*
D27*
X144456527Y-164339727D03*
X142551527Y-164339727D03*
X143504027Y-164339727D03*
X142551527Y-166453007D03*
X144456527Y-166453007D03*
D28*
X148800000Y-145550000D03*
X148800000Y-149250000D03*
D29*
X139904027Y-163846367D03*
X139904027Y-166746367D03*
D30*
X146800260Y-161100000D03*
D31*
X152799740Y-161100000D03*
D32*
X151604027Y-168293367D03*
X151604027Y-165499367D03*
D33*
X100000000Y-166000000D03*
X100000000Y-156000000D03*
D24*
X90000000Y-164810000D03*
D25*
X90000000Y-162270000D03*
X90000000Y-159730000D03*
X90000000Y-157190000D03*
D34*
X136190000Y-110000000D03*
D35*
X138730000Y-110000000D03*
X141270000Y-110000000D03*
X143810000Y-110000000D03*
D24*
X190000000Y-157380000D03*
D25*
X190000000Y-159920000D03*
X190000000Y-162460000D03*
X190000000Y-165000000D03*
D36*
X164070000Y-159200000D03*
D37*
X164070000Y-157930000D03*
X164070000Y-156660000D03*
X164070000Y-155390000D03*
X164070000Y-154120000D03*
X162800000Y-157930000D03*
X162800000Y-156660000D03*
X162800000Y-155390000D03*
X162800000Y-154120000D03*
X162800000Y-159200000D03*
D10*
G36*
X117159670Y-130815526D02*
X115884474Y-129540330D01*
X117015986Y-128408818D01*
X118291182Y-129684014D01*
X117159670Y-130815526D01*
X117159670Y-130815526D01*
G37*
G36*
X115184014Y-132791182D02*
X113908818Y-131515986D01*
X115040330Y-130384474D01*
X116315526Y-131659670D01*
X115184014Y-132791182D01*
X115184014Y-132791182D01*
G37*
G36*
X116013567Y-133815526D02*
X116721211Y-133107882D01*
X117145079Y-133531750D01*
X116437435Y-134239394D01*
X116013567Y-133815526D01*
X116013567Y-133815526D01*
G37*
G36*
X118181401Y-132994731D02*
X118889045Y-132287087D01*
X119312913Y-132710955D01*
X118605269Y-133418599D01*
X118181401Y-132994731D01*
X118181401Y-132994731D01*
G37*
G36*
X117360606Y-135162565D02*
X118068250Y-134454921D01*
X118492118Y-134878789D01*
X117784474Y-135586433D01*
X117360606Y-135162565D01*
X117360606Y-135162565D01*
G37*
D38*
X141350000Y-196400000D03*
X141350000Y-196900000D03*
X138350000Y-196900000D03*
D39*
X140600000Y-197600000D03*
X141100000Y-197600000D03*
X140100000Y-197600000D03*
X139600000Y-197600000D03*
X138600000Y-195700000D03*
X138600000Y-197600000D03*
X139100000Y-197600000D03*
X139100000Y-195700000D03*
X139600000Y-195700000D03*
X141100000Y-195700000D03*
X140600000Y-195700000D03*
D40*
X139850000Y-196650000D03*
D39*
X140100000Y-195700000D03*
D38*
X138350000Y-196400000D03*
D19*
X162300000Y-129400000D03*
X163500000Y-129400000D03*
X162300000Y-132700000D03*
X163500000Y-132700000D03*
D10*
G36*
X116048171Y-121352334D02*
X114987511Y-120291674D01*
X115553197Y-119725988D01*
X116613857Y-120786648D01*
X116048171Y-121352334D01*
X116048171Y-121352334D01*
G37*
G36*
X129412489Y-118736038D02*
X128351829Y-117675378D01*
X129271067Y-116756140D01*
X130331727Y-117816800D01*
X129412489Y-118736038D01*
X129412489Y-118736038D01*
G37*
G36*
X128015953Y-120521484D02*
X126778516Y-119284047D01*
X127273491Y-118789072D01*
X128510928Y-120026509D01*
X128015953Y-120521484D01*
X128015953Y-120521484D01*
G37*
G36*
X127238136Y-121299301D02*
X126000699Y-120061864D01*
X126495674Y-119566889D01*
X127733111Y-120804326D01*
X127238136Y-121299301D01*
X127238136Y-121299301D01*
G37*
G36*
X126460318Y-122077119D02*
X125222881Y-120839682D01*
X125717856Y-120344707D01*
X126955293Y-121582144D01*
X126460318Y-122077119D01*
X126460318Y-122077119D01*
G37*
G36*
X125682501Y-122854936D02*
X124445064Y-121617499D01*
X124940039Y-121122524D01*
X126177476Y-122359961D01*
X125682501Y-122854936D01*
X125682501Y-122854936D01*
G37*
G36*
X124904683Y-123632754D02*
X123667246Y-122395317D01*
X124162221Y-121900342D01*
X125399658Y-123137779D01*
X124904683Y-123632754D01*
X124904683Y-123632754D01*
G37*
G36*
X124126866Y-124410571D02*
X122889429Y-123173134D01*
X123384404Y-122678159D01*
X124621841Y-123915596D01*
X124126866Y-124410571D01*
X124126866Y-124410571D01*
G37*
G36*
X123349048Y-125188389D02*
X122111611Y-123950952D01*
X122606586Y-123455977D01*
X123844023Y-124693414D01*
X123349048Y-125188389D01*
X123349048Y-125188389D01*
G37*
G36*
X122571231Y-125966206D02*
X121333794Y-124728769D01*
X121828769Y-124233794D01*
X123066206Y-125471231D01*
X122571231Y-125966206D01*
X122571231Y-125966206D01*
G37*
G36*
X121174695Y-126973832D02*
X120114035Y-125913172D01*
X121033273Y-124993934D01*
X122093933Y-126054594D01*
X121174695Y-126973832D01*
X121174695Y-126973832D01*
G37*
G36*
X123932412Y-112478143D02*
X122942463Y-111488194D01*
X123508148Y-110922509D01*
X124498097Y-111912458D01*
X123932412Y-112478143D01*
X123932412Y-112478143D01*
G37*
G36*
X175100135Y-129236976D02*
X173878820Y-128015661D01*
X175315661Y-126578820D01*
X176536976Y-127800135D01*
X175100135Y-129236976D01*
X175100135Y-129236976D01*
G37*
D41*
X176896186Y-129811712D02*
X177111712Y-129596186D01*
X178692237Y-131607763D02*
X178907763Y-131392237D01*
X180488289Y-133403815D02*
X180703815Y-133188289D01*
D24*
X116000000Y-170660000D03*
D25*
X116000000Y-173200000D03*
X116000000Y-175740000D03*
D19*
X148700000Y-115600000D03*
X149900000Y-115600000D03*
X149900000Y-117100000D03*
X148700000Y-117100000D03*
X100400000Y-150900000D03*
X99200000Y-150900000D03*
X99200000Y-149400000D03*
X100400000Y-149400000D03*
X172700000Y-162100000D03*
X173900000Y-162100000D03*
X173900000Y-163700000D03*
X172700000Y-163700000D03*
D33*
X145000000Y-115000000D03*
X135000000Y-115000000D03*
X180000000Y-166000000D03*
X180000000Y-156000000D03*
D42*
X104000000Y-197000000D03*
X104000000Y-179000000D03*
X176000000Y-179000000D03*
X176000000Y-197000000D03*
M02*
