M48
;DRILL file {KiCad (2015-07-04 BZR 5884, Git c1bbf3e)-product} date 02/05/2016 12:26:31 PM
;FORMAT={-:-/ absolute / inch / decimal}
FMAT,2
INCH,TZ
T1C0.012
T2C0.016
T3C0.020
T4C0.022
T5C0.026
T6C0.039
T7C0.040
T8C0.040
T9C0.087
T10C0.094
T11C0.118
T12C0.136
%
G90
G05
M72
T1
X4.4732Y-5.7805
X4.474Y-5.7805
X6.2913Y-4.8947
X6.2913Y-4.8947
X6.6467Y-5.5817
X6.6467Y-5.5817
X6.8071Y-6.2913
X6.8071Y-6.2913
T2
X4.1265Y-5.4769
X4.2201Y-5.4335
X4.2201Y-5.4335
X4.2254Y-5.0069
X4.2307Y-5.6366
X4.2539Y-4.9793
X4.2972Y-5.8728
X4.2972Y-5.8728
X4.303Y-5.6534
X4.3126Y-5.1346
X4.3126Y-5.1346
X4.3386Y-5.5709
X4.4638Y-5.8701
X4.4638Y-5.8701
X4.4882Y-5.2717
X4.4892Y-5.2234
X4.5226Y-5.2549
X4.565Y-5.2254
X4.689Y-5.3661
X4.689Y-5.3661
X4.689Y-5.3661
X4.689Y-5.3661
X4.689Y-5.3661
X4.689Y-5.3661
X4.689Y-5.3661
X4.689Y-5.3661
X4.811Y-7.6102
X4.8179Y-7.6663
X4.9213Y-7.3622
X4.9854Y-5.7528
X4.9991Y-7.633
X5.0157Y-7.6496
X5.0551Y-5.6496
X5.0551Y-5.6496
X5.0551Y-5.6496
X5.0709Y-4.7677
X5.0709Y-4.7677
X5.0717Y-5.7504
X5.0717Y-5.7504
X5.0756Y-6.2476
X5.0756Y-6.2476
X5.1181Y-5.748
X5.1181Y-5.748
X5.1693Y-5.874
X5.1693Y-5.874
X5.1693Y-6.1614
X5.1762Y-5.6486
X5.1772Y-6.437
X5.1772Y-6.437
X5.189Y-5.4173
X5.228Y-5.7571
X5.228Y-5.7571
X5.2799Y-5.952
X5.31Y-7.7077
X5.312Y-7.6644
X5.3543Y-5.3268
X5.3575Y-5.95
X5.3622Y-5.5079
X5.3622Y-5.5079
X5.3701Y-5.4409
X5.3726Y-5.8042
X5.3898Y-5.4843
X5.3898Y-5.4843
X5.3898Y-5.4843
X5.4063Y-5.5641
X5.4094Y-7.7323
X5.4094Y-7.7677
X5.4094Y-7.7677
X5.4094Y-7.7677
X5.4134Y-5.6457
X5.4134Y-5.6457
X5.4213Y-6.1496
X5.4252Y-7.6811
X5.4252Y-7.6811
X5.4287Y-5.7933
X5.4287Y-5.7933
X5.4409Y-7.8228
X5.4409Y-7.8228
X5.4488Y-5.9055
X5.4567Y-5.6142
X5.4764Y-7.8465
X5.4764Y-7.8465
X5.4961Y-5.2126
X5.4961Y-5.2126
X5.5Y-5.9567
X5.5059Y-7.7421
X5.507Y-7.8462
X5.507Y-7.8462
X5.5291Y-5.9291
X5.5291Y-5.9291
X5.5354Y-7.8543
X5.5354Y-7.8543
X5.5357Y-5.6339
X5.5357Y-5.6339
X5.5357Y-5.6339
X5.5394Y-5.4567
X5.5394Y-5.4567
X5.5472Y-5.4882
X5.5472Y-5.4882
X5.5512Y-5.248
X5.5512Y-5.248
X5.5512Y-5.9843
X5.5512Y-5.9843
X5.5656Y-5.7795
X5.5656Y-5.7795
X5.6102Y-5.7992
X5.6102Y-5.7992
X5.6102Y-5.8386
X5.6102Y-5.8386
X5.6806Y-5.4443
X5.6806Y-5.4443
X5.6806Y-5.4443
X5.6806Y-5.4443
X5.6925Y-5.5898
X5.7323Y-6.1969
X5.7323Y-6.1969
X5.752Y-5.3642
X5.7677Y-5.4646
X5.798Y-5.3976
X5.8268Y-6.2244
X5.8268Y-6.2244
X5.8425Y-5.1063
X5.874Y-5.0709
X5.874Y-5.4961
X5.874Y-5.4961
X5.881Y-5.2362
X5.8811Y-5.9965
X5.8811Y-5.9965
X5.8819Y-6.0748
X5.9055Y-5.2165
X5.9063Y-5.6106
X5.9063Y-5.6106
X5.9114Y-7.2047
X5.9134Y-5.1102
X5.9307Y-5.9488
X5.9307Y-5.9488
X5.9449Y-5.0787
X5.9449Y-5.0787
X5.9478Y-7.2057
X5.9803Y-5.4449
X5.9803Y-5.4449
X5.986Y-7.2047
X5.9945Y-5.6275
X5.9945Y-5.6275
X6.0157Y-5.4449
X6.0219Y-7.2047
X6.03Y-5.6629
X6.03Y-5.6629
X6.1024Y-4.9961
X6.1024Y-4.9961
X6.1024Y-4.9961
X6.1024Y-4.9961
X6.1181Y-6.1732
X6.1417Y-4.9685
X6.1614Y-6.0945
X6.1772Y-7.4409
X6.1772Y-7.4409
X6.3465Y-5.078
X6.3504Y-5.2126
X6.3504Y-5.2126
X6.4299Y-5.398
X6.4299Y-5.398
X6.4646Y-5.0669
X6.4646Y-5.0669
X6.4646Y-5.1969
X6.4646Y-5.1969
X6.4724Y-5.4437
X6.6374Y-5.6799
X6.7244Y-4.8504
X6.7244Y-4.8504
X6.7323Y-5.9764
X6.7323Y-5.9764
X6.748Y-4.9488
X6.8319Y-5.6783
X6.8319Y-5.6783
X7.0276Y-5.3071
X7.0276Y-5.3071
X7.2323Y-5.4488
X7.2323Y-5.4488
X7.2323Y-5.5433
X7.2323Y-5.5433
T3
X4.8898Y-6.9291
X4.8898Y-6.9291
X5.0476Y-7.2835
X5.0893Y-7.2835
X5.1214Y-7.2047
X5.1332Y-7.2835
X5.1577Y-7.2047
X5.1755Y-7.2835
X5.1905Y-7.2047
X5.2268Y-7.2047
X5.2362Y-7.2835
X5.2559Y-7.2047
X5.2677Y-6.6024
X5.2677Y-6.6024
X5.2677Y-6.6024
X5.2677Y-6.6024
X5.4577Y-7.2096
X5.485Y-7.2369
X5.5246Y-7.2766
X5.5732Y-7.3252
X5.6132Y-7.439
X5.6369Y-7.4627
X5.6628Y-7.4886
X5.6891Y-7.5149
T5
X6.4094Y-6.0677
X6.4094Y-6.1177
X6.4094Y-6.1677
X6.4094Y-6.2177
X6.4094Y-6.2677
X6.4594Y-6.0677
X6.4594Y-6.1177
X6.4594Y-6.1677
X6.4594Y-6.2177
X6.4594Y-6.2677
T6
X5.5118Y-6.9969
T7
X3.5433Y-6.1886
X3.5433Y-6.2886
X3.5433Y-6.3886
X3.5433Y-6.4886
X4.3583Y-6.2874
X4.4583Y-6.2874
X4.5669Y-6.7189
X4.5669Y-6.8189
X4.5669Y-6.9189
X5.3618Y-4.3307
X5.4618Y-4.3307
X5.5618Y-4.3307
X5.6618Y-4.3307
X6.4528Y-6.585
X6.4528Y-6.685
X6.4528Y-6.785
X6.4882Y-4.6811
X6.4882Y-4.7811
X6.7425Y-6.1732
X6.8425Y-6.1732
X6.8979Y-5.0357
X6.9687Y-5.1065
X7.0394Y-5.1772
X7.1101Y-5.2479
X7.4803Y-6.1961
X7.4803Y-6.2961
X7.4803Y-6.3961
X7.4803Y-6.4961
T8
X6.0118Y-6.9969
T9
X3.937Y-6.1417
X3.937Y-6.5354
X5.315Y-4.5276
X5.7087Y-4.5276
X7.0866Y-6.1417
X7.0866Y-6.5354
T10
X5.2469Y-4.8976
X5.7768Y-4.8976
T11
X4.0945Y-7.0472
X4.0945Y-7.7559
X6.9291Y-7.0472
X6.9291Y-7.7559
T12
X5.0118Y-6.063
X6.0118Y-6.063
T3
X4.1138Y-5.0567G85X4.1319Y-5.0748
G05
X4.3087Y-4.8618G85X4.3268Y-4.8799
G05
T4
X4.2301Y-5.1089G85X4.2217Y-5.1172
G05
X4.3693Y-4.9697G85X4.3609Y-4.9781
G05
T0
M30
